# Blender v2.93.0 OBJ File: ''
# www.blender.org
mtllib brick_cylinder.mtl
o Cylinder
v 0.000000 -1.000000 -1.000000
v 0.000000 1.000000 -1.000000
v 0.195090 -1.000000 -0.980785
v 0.195090 1.000000 -0.980785
v 0.382683 -1.000000 -0.923880
v 0.382683 1.000000 -0.923880
v 0.555570 -1.000000 -0.831470
v 0.555570 1.000000 -0.831470
v 0.707107 -1.000000 -0.707107
v 0.707107 1.000000 -0.707107
v 0.831470 -1.000000 -0.555570
v 0.831470 1.000000 -0.555570
v 0.923880 -1.000000 -0.382683
v 0.923880 1.000000 -0.382683
v 0.980785 -1.000000 -0.195090
v 0.980785 1.000000 -0.195090
v 1.000000 -1.000000 0.000000
v 1.000000 1.000000 0.000000
v 0.980785 -1.000000 0.195090
v 0.980785 1.000000 0.195090
v 0.923880 -1.000000 0.382683
v 0.923880 1.000000 0.382683
v 0.831470 -1.000000 0.555570
v 0.831470 1.000000 0.555570
v 0.707107 -1.000000 0.707107
v 0.707107 1.000000 0.707107
v 0.555570 -1.000000 0.831470
v 0.555570 1.000000 0.831470
v 0.382683 -1.000000 0.923880
v 0.382683 1.000000 0.923880
v 0.195090 -1.000000 0.980785
v 0.195090 1.000000 0.980785
v -0.000000 -1.000000 1.000000
v -0.000000 1.000000 1.000000
v -0.195090 -1.000000 0.980785
v -0.195090 1.000000 0.980785
v -0.382683 -1.000000 0.923880
v -0.382683 1.000000 0.923880
v -0.555570 -1.000000 0.831470
v -0.555570 1.000000 0.831470
v -0.707107 -1.000000 0.707107
v -0.707107 1.000000 0.707107
v -0.831469 -1.000000 0.555570
v -0.831469 1.000000 0.555570
v -0.923880 -1.000000 0.382684
v -0.923880 1.000000 0.382684
v -0.980785 -1.000000 0.195090
v -0.980785 1.000000 0.195090
v -1.000000 -1.000000 -0.000000
v -1.000000 1.000000 -0.000000
v -0.980785 -1.000000 -0.195090
v -0.980785 1.000000 -0.195090
v -0.923879 -1.000000 -0.382684
v -0.923879 1.000000 -0.382684
v -0.831470 -1.000000 -0.555570
v -0.831470 1.000000 -0.555570
v -0.707107 -1.000000 -0.707107
v -0.707107 1.000000 -0.707107
v -0.555570 -1.000000 -0.831470
v -0.555570 1.000000 -0.831470
v -0.382683 -1.000000 -0.923880
v -0.382683 1.000000 -0.923880
v -0.195090 -1.000000 -0.980785
v -0.195090 1.000000 -0.980785
vt 0.500000 1.000000
vt 0.564677 0.000000
vt 0.500000 0.000000
vt 0.564677 1.000000
vt 0.626868 0.000000
vt 0.626868 1.000000
vt 0.684184 0.000000
vt 0.684184 1.000000
vt 0.734421 0.000000
vt 0.734421 1.000000
vt 0.684184 0.000000
vt 0.684184 1.000000
vt 0.626868 0.000000
vt 0.626868 1.000000
vt 0.564677 0.000000
vt 0.564677 1.000000
vt 0.500000 0.000000
vt 0.500000 1.000000
vt 0.435323 0.000000
vt 0.435323 1.000000
vt 0.373132 0.000000
vt 0.373132 1.000000
vt 0.315816 0.000000
vt 0.315816 1.000000
vt 0.265579 0.000000
vt 0.734421 1.000000
vt 0.684184 0.000000
vt 0.734421 0.000000
vt 0.684184 1.000000
vt 0.626868 0.000000
vt 0.626868 1.000000
vt 0.564677 0.000000
vt 0.564677 1.000000
vt 0.500000 0.000000
vt 0.500000 1.000000
vt 0.435323 0.000000
vt 0.435323 1.000000
vt 0.373132 0.000000
vt 0.373132 1.000000
vt 0.315816 0.000000
vt 0.315816 1.000000
vt 0.265579 0.000000
vt 0.265579 1.000000
vt 0.315816 0.000000
vt 0.315816 1.000000
vt 0.373132 0.000000
vt 0.373132 1.000000
vt 0.435323 0.000000
vt 0.435323 1.000000
vt 0.500000 0.000000
vt 0.500000 1.000000
vt 0.564677 0.000000
vt 0.564677 1.000000
vt 0.626868 0.000000
vt 0.626868 1.000000
vt 0.684184 0.000000
vt 0.684184 1.000000
vt 0.734421 0.000000
vt 0.265579 1.000000
vt 0.315816 0.000000
vt 0.265579 0.000000
vt 0.315816 1.000000
vt 0.373132 0.000000
vt 0.000263 0.493811
vt 0.328685 -0.010821
vt 0.663277 0.484504
vt 0.373132 1.000000
vt 0.435323 0.000000
vt 0.435323 1.000000
vt 0.545470 0.025306
vt 0.340546 0.661293
vt 0.762233 0.970357
vt 0.265579 1.000000
vt 0.734421 1.000000
vt 0.334855 0.989135
vt 0.270122 0.980436
vt 0.099541 0.845986
vt 0.207758 0.952858
vt 0.150160 0.907459
vt 0.057846 0.770799
vt 0.026678 0.684790
vt 0.007234 0.591262
vt 0.006031 0.396180
vt 0.024316 0.302123
vt 0.054418 0.215253
vt 0.095177 0.138909
vt 0.145029 0.076025
vt 0.202057 0.029018
vt 0.264070 -0.000307
vt 0.393418 -0.002122
vt 0.455782 0.025457
vt 0.513380 0.070855
vt 0.564000 0.132329
vt 0.605694 0.207515
vt 0.636862 0.293525
vt 0.656306 0.387052
vt 0.657510 0.582134
vt 0.639762 0.674180
vt 0.609123 0.763061
vt 0.568363 0.839405
vt 0.518511 0.902289
vt 0.461483 0.949296
vt 0.399470 0.978621
vt 0.967157 0.334370
vt 0.939992 0.245326
vt 0.901832 0.165985
vt 0.854141 0.099397
vt 0.798754 0.048121
vt 0.737798 0.014127
vt 0.673616 -0.001279
vt 0.608675 0.002496
vt 0.486429 0.066275
vt 0.433823 0.123828
vt 0.389672 0.195755
vt 0.355674 0.279290
vt 0.333134 0.371223
vt 0.322919 0.468022
vt 0.325422 0.565966
vt 0.367711 0.750337
vt 0.405871 0.829677
vt 0.453562 0.896266
vt 0.508949 0.947542
vt 0.569905 0.981536
vt 0.634086 0.996942
vt 0.699028 0.993167
vt 0.821274 0.929388
vt 0.873880 0.871834
vt 0.918031 0.799908
vt 0.952029 0.716373
vt 0.974569 0.624440
vt 0.984783 0.527641
vt 0.982281 0.429697
vn 0.0980 0.0000 -0.9952
vn 0.2903 0.0000 -0.9569
vn 0.4714 0.0000 -0.8819
vn 0.6344 0.0000 -0.7730
vn 0.7730 0.0000 -0.6344
vn 0.8819 0.0000 -0.4714
vn 0.9569 0.0000 -0.2903
vn 0.9952 0.0000 -0.0980
vn 0.9952 0.0000 0.0980
vn 0.9569 0.0000 0.2903
vn 0.8819 0.0000 0.4714
vn 0.7730 0.0000 0.6344
vn 0.6344 0.0000 0.7730
vn 0.4714 0.0000 0.8819
vn 0.2903 0.0000 0.9569
vn 0.0980 0.0000 0.9952
vn -0.0980 0.0000 0.9952
vn -0.2903 0.0000 0.9569
vn -0.4714 0.0000 0.8819
vn -0.6344 0.0000 0.7730
vn -0.7730 0.0000 0.6344
vn -0.8819 0.0000 0.4714
vn -0.9569 0.0000 0.2903
vn -0.9952 0.0000 0.0980
vn -0.9952 0.0000 -0.0980
vn -0.9569 0.0000 -0.2903
vn -0.8819 0.0000 -0.4714
vn -0.7730 0.0000 -0.6344
vn -0.6344 0.0000 -0.7730
vn -0.4714 0.0000 -0.8819
vn 0.0000 1.0000 0.0000
vn -0.2903 0.0000 -0.9569
vn -0.0980 0.0000 -0.9952
vn 0.0000 -1.0000 0.0000
usemtl Material
s off
f 2/1/1 3/2/1 1/3/1
f 4/4/2 5/5/2 3/2/2
f 6/6/3 7/7/3 5/5/3
f 8/8/4 9/9/4 7/7/4
f 10/10/5 11/11/5 9/9/5
f 12/12/6 13/13/6 11/11/6
f 14/14/7 15/15/7 13/13/7
f 16/16/8 17/17/8 15/15/8
f 18/18/9 19/19/9 17/17/9
f 20/20/10 21/21/10 19/19/10
f 22/22/11 23/23/11 21/21/11
f 24/24/12 25/25/12 23/23/12
f 26/26/13 27/27/13 25/28/13
f 28/29/14 29/30/14 27/27/14
f 30/31/15 31/32/15 29/30/15
f 32/33/16 33/34/16 31/32/16
f 34/35/17 35/36/17 33/34/17
f 36/37/18 37/38/18 35/36/18
f 38/39/19 39/40/19 37/38/19
f 40/41/20 41/42/20 39/40/20
f 42/43/21 43/44/21 41/42/21
f 44/45/22 45/46/22 43/44/22
f 46/47/23 47/48/23 45/46/23
f 48/49/24 49/50/24 47/48/24
f 50/51/25 51/52/25 49/50/25
f 52/53/26 53/54/26 51/52/26
f 54/55/27 55/56/27 53/54/27
f 56/57/28 57/58/28 55/56/28
f 58/59/29 59/60/29 57/61/29
f 60/62/30 61/63/30 59/60/30
f 54/64/31 38/65/31 22/66/31
f 62/67/32 63/68/32 61/63/32
f 64/69/33 1/3/33 63/68/33
f 15/70/34 31/71/34 47/72/34
f 2/1/1 4/4/1 3/2/1
f 4/4/2 6/6/2 5/5/2
f 6/6/3 8/8/3 7/7/3
f 8/8/4 10/10/4 9/9/4
f 10/10/5 12/12/5 11/11/5
f 12/12/6 14/14/6 13/13/6
f 14/14/7 16/16/7 15/15/7
f 16/16/8 18/18/8 17/17/8
f 18/18/9 20/20/9 19/19/9
f 20/20/10 22/22/10 21/21/10
f 22/22/11 24/24/11 23/23/11
f 24/24/12 26/73/12 25/25/12
f 26/26/13 28/29/13 27/27/13
f 28/29/14 30/31/14 29/30/14
f 30/31/15 32/33/15 31/32/15
f 32/33/16 34/35/16 33/34/16
f 34/35/17 36/37/17 35/36/17
f 36/37/18 38/39/18 37/38/18
f 38/39/19 40/41/19 39/40/19
f 40/41/20 42/43/20 41/42/20
f 42/43/21 44/45/21 43/44/21
f 44/45/22 46/47/22 45/46/22
f 46/47/23 48/49/23 47/48/23
f 48/49/24 50/51/24 49/50/24
f 50/51/25 52/53/25 51/52/25
f 52/53/26 54/55/26 53/54/26
f 54/55/27 56/57/27 55/56/27
f 56/57/28 58/74/28 57/58/28
f 58/59/29 60/62/29 59/60/29
f 60/62/30 62/67/30 61/63/30
f 6/75/31 4/76/31 62/77/31
f 4/76/31 2/78/31 62/77/31
f 2/78/31 64/79/31 62/77/31
f 62/77/31 60/80/31 58/81/31
f 58/81/31 56/82/31 62/77/31
f 56/82/31 54/64/31 62/77/31
f 54/64/31 52/83/31 50/84/31
f 50/84/31 48/85/31 46/86/31
f 46/86/31 44/87/31 42/88/31
f 42/88/31 40/89/31 38/65/31
f 38/65/31 36/90/31 34/91/31
f 34/91/31 32/92/31 30/93/31
f 30/93/31 28/94/31 26/95/31
f 26/95/31 24/96/31 22/66/31
f 22/66/31 20/97/31 18/98/31
f 18/98/31 16/99/31 14/100/31
f 14/100/31 12/101/31 10/102/31
f 10/102/31 8/103/31 6/75/31
f 54/64/31 50/84/31 38/65/31
f 50/84/31 46/86/31 38/65/31
f 46/86/31 42/88/31 38/65/31
f 38/65/31 34/91/31 30/93/31
f 30/93/31 26/95/31 38/65/31
f 26/95/31 22/66/31 38/65/31
f 22/66/31 18/98/31 6/75/31
f 18/98/31 14/100/31 6/75/31
f 14/100/31 10/102/31 6/75/31
f 6/75/31 62/77/31 54/64/31
f 6/75/31 54/64/31 22/66/31
f 62/67/32 64/69/32 63/68/32
f 64/69/33 2/1/33 1/3/33
f 63/104/34 1/105/34 3/106/34
f 3/106/34 5/107/34 7/108/34
f 7/108/34 9/109/34 11/110/34
f 11/110/34 13/111/34 15/70/34
f 15/70/34 17/112/34 19/113/34
f 19/113/34 21/114/34 23/115/34
f 23/115/34 25/116/34 27/117/34
f 27/117/34 29/118/34 31/71/34
f 31/71/34 33/119/34 35/120/34
f 35/120/34 37/121/34 39/122/34
f 39/122/34 41/123/34 43/124/34
f 43/124/34 45/125/34 47/72/34
f 47/72/34 49/126/34 51/127/34
f 51/127/34 53/128/34 47/72/34
f 53/128/34 55/129/34 47/72/34
f 55/129/34 57/130/34 59/131/34
f 59/131/34 61/132/34 55/129/34
f 61/132/34 63/104/34 55/129/34
f 63/104/34 3/106/34 15/70/34
f 3/106/34 7/108/34 15/70/34
f 7/108/34 11/110/34 15/70/34
f 15/70/34 19/113/34 23/115/34
f 23/115/34 27/117/34 15/70/34
f 27/117/34 31/71/34 15/70/34
f 31/71/34 35/120/34 47/72/34
f 35/120/34 39/122/34 47/72/34
f 39/122/34 43/124/34 47/72/34
f 47/72/34 55/129/34 63/104/34
f 63/104/34 15/70/34 47/72/34
